<svg width="24" height="24" viewBox="0 0 24 24" fill="none" xmlns="http://www.w3.org/2000/svg">
<path d="M16.6993 8.7149L18.4882 6.9256C18.6525 6.9692 18.8219 7 19 7C20.1046 7 21 6.1046 21 5C21 3.8954 20.1046 3 19 3C17.8954 3 17 3.8954 17 5C17 5.1779 17.0307 5.3472 17.0743 5.5114L15.2847 7.3015C14.8102 4.5142 13.83 2 12 2C9.9012 2 8.9214 5.3057 8.5397 8.5391C5.306 8.9208 2 9.9007 2 12C2 13.8302 4.5137 14.8105 7.3007 15.2851L5.5118 17.0744C5.3475 17.0308 5.1781 17 5 17C3.8954 17 3 17.8954 3 19C3 20.1046 3.8954 21 5 21C6.1046 21 7 20.1046 7 19C7 18.8221 6.9693 18.6528 6.9257 18.4886L8.7153 16.6985C9.1898 19.4858 10.17 22 12 22C14.0988 22 15.0786 18.6942 15.4603 15.4608C18.694 15.0791 22 14.0993 22 12C22 10.1698 19.4863 9.1895 16.6993 8.7149ZM13.6665 12C13.6665 12.5667 13.6503 13.1072 13.6214 13.6218C13.1069 13.6508 12.5665 13.667 12 13.667C11.4335 13.667 10.8931 13.6508 10.3786 13.6218C10.3497 13.1072 10.3335 12.5666 10.3335 12C10.3335 11.4334 10.3497 10.8928 10.3786 10.3782C10.8931 10.3492 11.4335 10.333 12 10.333C12.5665 10.333 13.1069 10.3492 13.6214 10.3782C13.6503 10.8928 13.6665 11.4333 13.6665 12ZM12 4.0215C12.4308 4.3099 13.0807 5.8615 13.4277 8.3692C12.9257 8.3448 12.4437 8.333 12 8.333C11.5563 8.333 11.0743 8.3448 10.5723 8.3692C10.9193 5.8615 11.5692 4.3099 12 4.0215ZM4.0215 12C4.3099 11.5692 5.8619 10.919 8.3698 10.5718C8.3454 11.074 8.3335 11.5562 8.3335 12C8.3335 12.4438 8.3454 12.926 8.3698 13.4282C5.8619 13.081 4.3099 12.4308 4.0215 12ZM12 19.9785C11.5692 19.6901 10.9193 18.1385 10.5723 15.6308C11.0743 15.6552 11.5563 15.667 12 15.667C12.4437 15.667 12.9257 15.6552 13.4277 15.6308C13.0807 18.1385 12.4308 19.6901 12 19.9785ZM15.6302 13.4282C15.6546 12.926 15.6665 12.4439 15.6665 12C15.6665 11.5561 15.6546 11.074 15.6302 10.5718C18.1381 10.919 19.6901 11.5691 19.9785 12C19.6901 12.4308 18.1381 13.081 15.6302 13.4282Z" fill="black"/>
</svg>
